<?xml version="1.0" encoding="UTF-8"?>
<svg id="Capa_2" data-name="Capa 2" xmlns="http://www.w3.org/2000/svg" xmlns:xlink="http://www.w3.org/1999/xlink" viewBox="0 0 520.89 509.46">
  <defs>
    <style>
      .cls-1 {
        fill: none;
      }

      .cls-1, .cls-2, .cls-3, .cls-4, .cls-5, .cls-6, .cls-7, .cls-8, .cls-9, .cls-10, .cls-11, .cls-12, .cls-13 {
        stroke: #000;
        stroke-miterlimit: 10;
      }

      .cls-2 {
        fill: url(#Degradado_sin_nombre_3-4);
      }

      .cls-3 {
        fill: url(#Degradado_sin_nombre_3-10);
      }

      .cls-4 {
        fill: url(#Degradado_sin_nombre_3-9);
      }

      .cls-5 {
        fill: url(#Degradado_sin_nombre_3-6);
      }

      .cls-6 {
        fill: #fff;
      }

      .cls-7 {
        fill: url(#Degradado_sin_nombre_3-2);
      }

      .cls-8 {
        fill: url(#Degradado_sin_nombre_29);
      }

      .cls-9 {
        fill: url(#Degradado_sin_nombre_3);
      }

      .cls-10 {
        fill: url(#Degradado_sin_nombre_3-3);
      }

      .cls-11 {
        fill: url(#Degradado_sin_nombre_3-7);
      }

      .cls-12 {
        fill: url(#Degradado_sin_nombre_3-5);
      }

      .cls-13 {
        fill: url(#Degradado_sin_nombre_3-8);
      }
    </style>
    <linearGradient id="Degradado_sin_nombre_3" data-name="Degradado sin nombre 3" x1="12620.46" y1="118.64" x2="12683.17" y2="118.64" gradientTransform="translate(12931.7) rotate(-180) scale(1 -1)" gradientUnits="userSpaceOnUse">
      <stop offset="0" stop-color="#f1f1ef"/>
      <stop offset="1" stop-color="#000"/>
    </linearGradient>
    <linearGradient id="Degradado_sin_nombre_3-2" data-name="Degradado sin nombre 3" x1="12792.01" y1="183.28" x2="12833.38" y2="183.28" xlink:href="#Degradado_sin_nombre_3"/>
    <linearGradient id="Degradado_sin_nombre_3-3" data-name="Degradado sin nombre 3" x1="12498" y1="183.23" x2="12539.49" y2="183.23" xlink:href="#Degradado_sin_nombre_3"/>
    <linearGradient id="Degradado_sin_nombre_3-4" data-name="Degradado sin nombre 3" x1="12665.92" y1="160.94" x2="12702.54" y2="160.94" xlink:href="#Degradado_sin_nombre_3"/>
    <linearGradient id="Degradado_sin_nombre_29" data-name="Degradado sin nombre 29" x1="12628.46" y1="161" x2="12664.04" y2="161" gradientTransform="translate(12931.7) rotate(-180) scale(1 -1)" gradientUnits="userSpaceOnUse">
      <stop offset="0" stop-color="#f1f1ef"/>
      <stop offset="1" stop-color="#555355"/>
    </linearGradient>
    <linearGradient id="Degradado_sin_nombre_3-5" data-name="Degradado sin nombre 3" x1="12671.78" y1="127.9" x2="12710.93" y2="127.9" xlink:href="#Degradado_sin_nombre_3"/>
    <linearGradient id="Degradado_sin_nombre_3-6" data-name="Degradado sin nombre 3" x1="12762.74" y1="168.9" x2="12790.46" y2="168.9" xlink:href="#Degradado_sin_nombre_3"/>
    <linearGradient id="Degradado_sin_nombre_3-7" data-name="Degradado sin nombre 3" x1="12540.12" y1="168.69" x2="12568.14" y2="168.69" xlink:href="#Degradado_sin_nombre_3"/>
    <linearGradient id="Degradado_sin_nombre_3-8" data-name="Degradado sin nombre 3" x1="12519.24" y1="217.49" x2="12549.13" y2="217.49" xlink:href="#Degradado_sin_nombre_3"/>
    <linearGradient id="Degradado_sin_nombre_3-9" data-name="Degradado sin nombre 3" x1="12783.27" y1="217.8" x2="12811.91" y2="217.8" xlink:href="#Degradado_sin_nombre_3"/>
    <linearGradient id="Degradado_sin_nombre_3-10" data-name="Degradado sin nombre 3" x1="12782.22" y1="206.95" x2="12785.67" y2="206.95" xlink:href="#Degradado_sin_nombre_3"/>
  </defs>
  <g id="Capa_5" data-name="Capa 5">
    <g id="Mascara">
      <g>
        <path class="cls-6" d="M484.19,265.78l-12.18-7.7c15.77-9.98,30.78-20.96,42.54-35.26-15.43-.02-29.42.33-44.48,1.08-2.87,2.87-3.25,6.51-5.55,8.5l-4.48-6.71c8.49-4.3,15.75-9.01,23.01-14.85l7.87-6.33-10.99-13.6c4.57.41,19.78,2.38,21,5.18,3.14-2.79,6.01-5.67,8.8-8.67l5.26-5.67c1.58-1.7,3.74-4.79,4.58-6.75.17-.38-.87-1.71-1.24-1.61-.47.13-1.32.55-1.64.93l-5.32,6.29c-3.12,3.68-6.14,6.92-9.71,10.35l-25.29-4.77c-.75-.14-2.46.44-2.62,1.09s-.11,2.38.42,3l11.59,13.68c-7.72,6.73-15.38,12.18-24.1,16.98-5.2-2.23-10.14-4.77-14.76-7.31-.67-.37-2.3-.06-2.83.29-2.92,1.95,8.76,8.56,9.8,10.31-2.59,1.14-4.02,1.49-6.41,1.88l-.12,1.17c-11.63,5.63-21.91,3.91-32-3.62l-.42-6.91,7.02-.34c4.1-.2,8.47-3.26,10.92-6.55,3.96-5.31,4.51-11.87,3.38-18.39l77.55-35.78c2.6-1.2,4.47-2.21,6.27-4.43,1.83-2.26-4.19-.59-5.97.24l-9.04,4.23-39.84,18.26-31.14,14.16c-3.57-4.19-8.12-6.29-13.76-6.65,3.53-3.04,5.75-6.09,7.81-9.9,1.15-2.14,2.63-4.16,3.97-6.24l13.22-20.53c1.79-.62,4.08-1.87,5.83-2.09l22.29-2.75,2.09,16.05c.09.72,1.11,2.3,1.77,2.29s2.17-.73,2.54-1.29c7.36-10.94,2.92-9.73,8.56-14.56l2.23-3.98c5.69-.62,12.71.33,16.83-.22,1.08-.14,3.76.75,4.32-.2,1.74-2.92-4.29-1.99-9.54-2.91-1.98-.35-4.14.4-5.77.58-2.15.24-5.12-1.55-7.45.03-3.52,2.38-5.45,10.67-10.17,15.66l-2.48-15.33-28.16,3.32,7.33-16.03c4.28-9.36,6.62-19.21,10.1-28.85l24.5-20.28c.41-.34.69-1.29.73-1.62.06-.43-1.37-1.07-1.77-.75l-21.7,17.33c-.76-.1-2.24-.41-2.9-.24l-22.76,5.77c.54-1.05,1.58-2.25,2.5-3.09l7.26-6.64,9.74-8.9c.34-.31.62-1.4.72-1.79.09-.39-1.43-1.15-1.79-.85-2.43,2.03-6.22,5.55-8.79,7.95l-10.46,9.76-5.49,5.34c-9.59,3.44-18.92,7.03-28.23,11.15.8-5.35,1.3-9.67,1.11-15.12-9.51,3.81-18.12,10.11-28.1,8.37-.94-.16-2.21-1.34-2.46-2.1-1.74-5.32,15.42-4.54,26.6-12.15,4.67-3.18,6.77-8.57,5.22-13.99l-3.45-12.07c-2.04-7.15-2.4-14.66-2.93-22.11-5.06.67-9.99.9-15.01.32l-14.92-1.74c-6.72-.79-9.5,15.84-10.5,20.16-.69,2.99-2.67,9.49-5.79,10.04-.44.08-1.46-.74-1.62-1.2-2.61-7.21,2.76-19.62,5.18-28.12-9.61.42-18.64,3.69-26.6,8.57-4.08,2.5-5.85,6.49-6.71,10.83l-.22-1.55c-.03-.24-.77-.49-.95-.31l-.71.74-.82.85c-.17.18.41.86.63.93l2.54.84c.75,3.99,1.22,8.2,2.31,11.93,1.65,5.64,3.06,10.89,4.05,16.71.36,2.09-.26,4.86-1.4,6.63-.42.65-2.36,1.21-3.1,1.01-5.65-1.53-9.87-20.74-9.52-25.67,1.72,0,2.17-.06.38.99.38.38,1.18,1.03,1.7,1.31.63.34,1.38-1.05,1.7-2.2l-3.88-1.16-.18-10.41c-8.68,1.89-15.02,6.57-20.91,13.2-5.56-18.87-12.9-36.69-22.39-53.82l-6.15-11.11-2.52-4.36c-.35-.6-1.39-1.46-1.96-1.48s-1.5.85-1.92,1.54c-13.17,22.06-23.65,45.2-30.75,70.13-5.53-7.1-12.59-12.24-21.55-13.88,1.17,6.58.93,12.52-.49,18.64-1.04,4.47-4.73,19.57-10.57,18.32-5.5-1.18-1.23-15.89-.07-19.89,1.51-5.22,2.78-10.45,3.56-15.75.89-6.06-2.05-10.77-7.19-13.86-7.61-4.59-16.3-6.78-25.46-7.8,1.66,5.06,3.23,9.53,4.52,14.4.73,2.77,2.71,13.48-.34,14.39-3.71,1.11-5.72-6.34-6.33-9.14-1.13-5.1-2.19-10.17-3.87-14.98-1.41-4.04-4.69-5.98-8.74-5.51l-14.32,1.67c-4.35.51-8.62.3-13.29.21-.69,11.49-3.23,22.18-6.53,32.86-1.96,6.35.17,12.42,5.7,15.84,10.82,6.7,25.76,6.14,26.03,10.15.04.6-.84,1.89-1.41,2.17-7.75,3.74-21.22-3.42-29.06-7.35-.81,5.22.21,10.03,1.25,15.33l-27.75-10.85-8.54-7.99-16.58-15.35c-.27-.25-1.48-.19-1.72.06-.29.31-.52,1.36-.17,1.69l4.66,4.5,10.03,9.5c1.74,1.64,3.38,2.91,5.19,5.16l-22.26-5.53c-3.07-.76-3.14.64-3.15.62.18.19,0,0-.73-.81l-20.89-16.46c-.43-.34-1.67-.2-1.93-.26-.37-.08-.53,1.57-.07,1.94l25.04,20.03,4.49,14.22c3.39,10.73,8.41,20.73,12.98,31.11l-26.12-3.43c-.52-.07-2.13.15-2.32.62s-.43,1.41-.51,2.07l-1.63,12.89c-2.8-2.74-8.42-15.86-9.62-15.57-.18.04-1,.21-1.01.2-.02-.01-.1-.43-.27-1.22l-11.54.18c-1.9.03-3.64,1.44-4.59,3.37l4.13-.14c3.8-.13,7.62-.05,11.31.04l9.68,17.42c.46.83,1.81,2.05,2.62,2.11s2.57-1.33,2.66-2.21l1.66-15.89c8.63,1.06,21.2,1.58,28.54,4.6l7.67,12.95,10.69,16.77c1.83,2.87,4.16,5.2,6.48,7.64-5.19.4-9.34,2.27-12.74,6.09l-36.05-16.16-40.6-18.37-9.11-4.19c-.73-.34-2.06-.71-2.72-.57-.72.15-1.57,1.77-1.28,2.57l6.7,3.06c3.95,1.8,6.06.17,6.42,1.51l.44,1.66,5.27,2.56,68.66,31.3c-1.75,6.4-1.64,13.09,2.32,18.46,2.36,3.21,6.34,6.06,10.31,6.82,2.91.56,5.53,0,8.95-.1-.24,2.19-.68,4.94-1.32,7.17-6.09,4.55-13.12,7.27-20.79,7.06-4.73-.13-8.97-2.06-13.25-3.72l-4.47-1.73c-.4-.16-1.29-1.09-1.04-1.38s.89-.98,1.3-1.26l5.1-3.53c1.87-1.3,3.21-2.48,3.58-4.63.05-.29-1.27-.24-1.56-.09-4.86,2.43-10.64,5.05-15.74,7.05l-5.75-4.13,2.13-7.08c.31-1.02.49-1.98-1.08-2.58-.9,2.56-1.68,5.01-2.36,7.57l-.25.96c-.23.86-6.17-3.77-6.64-5.01l3.66-10.79c.09-.28.27-.92.3-1.11.05-.29-.51-.76-.81-.75-2.02.08-4.5,8.93-5.43,11.38-1.44-.77-3.28-2.32-4.33-3.57,2.66-4.87-1.57-5.67,3.21-10.3,2.06-1.99,4.47-5.09,5.74-7.33,2.42-4.29-15.39.07-16.7.34l-9.17,1.82,1.66-6.84c.07-.3-.03-1.2-.12-2.26.28-.54.05-.46-.73.16l-4.27,7.82c-1.59-1.56-2.86-2.99-3.94-4.6,1.91-7.69,5.11-14.17,8.91-21.02-.88-.37-1.47-.53-1.69-.32-4.09,4.35-8.55,15.43-10.3,17.48-.21.24-.78-.22-1.1-.62l-3.52-4.41c-.07-1.12.02-3.61.19-4.7l1-4.91c-1.29,2.39-2.11,4.44-3.12,6.92-2.44-.91-1.35-3.58-5.6-3.82l-2.18-1.21c-.18-.46-.06.37.07.95l4.87,6.85-2.64,5.24c-6.52,12.92-11.62-5.3-8.1,9.77l.14,1.09c.02-1.37.66-5.48,1.6-5.2,3.08.89,3.05,1.62,4.82,1.25,2.74-.58,2.27-2.49,2.3-4.59,0-.17.81-1.27.85-1.08s.3,1.08.27,1.27l-.6,4.08.18,7.9c.02,1.78.3-6.14.44-4.31l.82.42c-.52-6.29-.84-3.39,1.77-8.4,1.39-2.66.81,3.49,1.36.46,1.88-10.42,1.02,2.76,8.57,6.03,1.39,1.17,2.42,2.18,3.55,3.48-3.01,9.35-4.77,18.15-5.81,28.27-1.42.32-3.56.56-5.39.74,1.63,1.66,3.69,3.79,4.74,5.3.33.65.56-1.6.92.86l.63-.08c.33.46.59,1.13.93,1.51l6.68,5.87,1.07.97c.3.27.03.67.4.1,2.95-4.52,1.09.19.67.84l.04.28c.1-.17.53.22.82.47,7.51,6.56,15.39,12.05,23.79,17.77,1.23,1.38-1.31,3.86-2.7,4.7-7.14,4.34-20.15,12.54-25.66,18.09-1.97,1.98,31.53,12.73,34.99,13.22.26.99.58,3.18.39,4.18l-8.9,12.3c-3.43,4.74-6.36,9.38-9.13,14.54l12.47,8.37-.03.88-13.75,2.09c-1.42.22-3.21.14-5.24.25-2.43,4.43-4.25,8.75-6.21,13.29l-1.35,3.12-3.65,7.97c-1.32,2.88-2.43,5.82-3.2,8.84l-1.94,7.68-.3,1.19c-.05.2.56.25.65.07l.47-.9,2.21-4.25,1.48-3.05c3.95-8.13,3.33-13.66,8.36-20.84,2.3-3.28,3.87-6.45,6.04-10.22l21.77-1.76c.71-.06,1.81-.91,2.23-1.26s.46-2.27-.14-2.65l-14.6-9.46c-.43-.28-.88-.56-.9-.57.07.05,14.47-21.8,17.5-23.48l12.98,3.53c10.42,2.83,20.78,4.55,31.54,5.69l-71.74,63.06-4.68,4.35c-.75.7-6.68,3.68-4.06,7.14.77-.21,1.67-.52,2.07-.87l61.09-53.39,13.96-12.17c.95-.6,1.02-.52.32.46-2.67,5.79-6.94,13.94-6.42,20.07,10.32-2.59,28.51-3.92,37.78.88.79.41,1.84,2.06,1.7,2.85-.72,4.07-8.96,4.59-11.76,3.74-2.08-.63-2.91-4.15-3.65-6.01-.67-1.69-4.34-2.06-4.92-.28l-2.02,6.14c-6.3.15-17.19.93-20.72,6.79-4.88,8.12-2.75,15.53-6.95,16.38-1.05.21-2.59-.88-3.15-2l-5.56-11.13c-.35-.7-1.89-1.39-2.51-1.14s-1.66,1.46-1.81,2.18l-4.24,21.42-21.61,6.96-6.26,2.75c-.98.06-3.18-.39-4.07-.02l-4.22,1.74c-.98.4-2.02.55-3.06.69l-5.65.79c-1.39.19-2.42.25-4.27.39l-.62-1.25-2.82-2.17.36-6.49c-3.71.83-2.36,3.39-3.49,5.42-.98,1.76-3.09,5.83-.03,7.1,5.11,2.12,10.9-.71,15.83-1.49,6.18-.98,11.7-2.32,17.18-4.27-.5-2.79.2.34,1.66-.11l19.57-6c2.78-.85,4.67-2.17,5.23-5.09l2.81-14.52c.09-.46.31-1.16.45-.99.25.29,1.02,1.13,1.19,1.43l4.45,8.4c1.08,2.05,3.28,2,5.21,1.15.47-.09,1.21-.15,1.19.14-.04.43-.11,1.67-.19,2.24l-71.33,52.53c-2.26,1.67-4.1,2.87-2.88,4.53.17.23,1,.23,1.83-.38l71.13-52.62c.52-.39,1.18-1.1,1.35-1.32,1.06-1.34-.66,3.58,2.38,4.85l10.12-6.66c3.37-2.22,14.14-6.99,16.41-4.06,1.89,2.44-3.9,6.42-6.87,7.61-5.52,2.21-10.71,4.69-15.51,7.96-5.46,3.72-6.07,9.71-3.99,15.54l-28.39,26.16-48.12,44.66c-.27.25-.78,1.12-.93,1.45s.47.84,1.27,1.61l39.55-36.43,37.3-34.31c.56-.05.91-.09.96-.07,2.71,7.1,4.43,14.3,4.95,21.55.27,3.82,3.77.67,10.61.58l13.13-.18,2.3-2.02.89-.78c.22-.19-.49-.4-.85-.37h-18.99c1.62-2.78,2.37-5.04,2.93-8.16,1.07-1.11,2.69-2.51,4.45-3.17l50.12-68.72,8.41-11.11,11.45,16.26c-2.02.27-4.64.93-5.62,2.65-1.26,2.22-.05,4.99,1.81,6.53l13.42,11.06c7,5.77,6.27,16.52-.57,22.01-2.43,1.95-3.47,5.32-7.4,6.03-1.82-9.06-7.18-24.72-13.45-31.58-1.5-1.64-4.29-2.39-6.27-2.15-7.09.87-6.21,11.39-4.32,17.23l5.08,15.61c1.09,3.35,1.89,6.87,1.34,10.46-.85,5.46-17.89,13.92-22.33,13.44-.42-.05-.34-1.42-.2-1.82,1.67-5,2.12-9.77,2.36-15.05.15-3.4.51-7.87-3.35-9.72-3.22-1.55-7.56.94-8.77,4.46-3.79,11.02-1.82,19.22-7.07,25.24.1.59,2.16,2.03,2.86,1.64,1.59-1.38,3.06-4.47,3.46-6.77l2.02-11.73c.4-2.34,1.89-11.42,5.91-9.46.72.35,1.65,2.01,1.63,2.87l-.17,8.74c-.13,6.31-6.87,17.06-1.92,16.32,9.1-1.36,17.3-5.18,24.5-10.7,9.21-7.06,3.16-19.63-.52-30.25-1.27-3.67-4.48-13.44-1.33-16.26.72-.64,2.93-.51,3.8.02,3.06,1.89,4.33,5.16,4.16,8.77-.5,10.43-.85,20.64,1.58,30.84,1.56,6.56,3.2,12.97,5.26,19.35.33,1.04.12,1.92-.06,2.77.03-.14,1.03.27,1.08.4l5.77,14.27c.23.56.38,1.04.46,1.27s.55.57.29.46l.2.24c-.27-.12.31.12,0,.73-.11.21.4.67.49.83l.49.41,4.13,8.24.64,1.3c.12.25.68-.01.37-.09l-.64-.31c-.21-.05-.05.4.08.9l.62.42,7.17,11.14c8.13-13.25,14.53-27.02,19.94-41.1l.41-1.06c.06-.17.28.17.47.41l1.59,4.6c1.48,4.28,2.62,8.03,3.99,12.79l13.69-3.25c.23-.05.97-.17,1.18-.21.19-.03.1.4.12.85l-3.55,4.93-6.83,9.98c8.62,19.27,16.48,33.64,28.56,51.43,10.86-14.02,19.24-28.46,26.17-44.03l6.67-14.96-12.68-18.66,16.6,4.52,4.35-10.87c.6,1.1,1.38,2.64,1.9,4.09,5.15,14.17,10.82,27.85,19.23,40.92,13.73-20.16,28.69-58.36,28.14-80.99l-.35-14.41c-.07-2.88,2.86-8.02,6.99-6.7,8.21,2.62-4.58,22.84-5.78,34.89-.46,4.65,1.43,9.08,5.14,11.94,4.45,3.43,9.51,5.98,14.79,8.25,1.41.61,3.47.77,4.78,1.06.47.11,4.26,1.52,5.68-.18.39-.47.72-2.1.42-2.79-3.17-7.32-4.38-15.92-2.73-23.8l3.49.19c1.84,2.87,2.89,6.18,3.34,9.62l1.4,10.68c.38,2.89,1.2,6.75,3.74,8.31,4.25,2.63,9.04.93,13.6.89l9.63-.09c1.63-.02,4.73,1.31,6.16-.23l3.04-3.28c.35-.38-.23-2.05-.59-2.47-.86-1.01-.81.7-3.99,1.2-.5.08-.55-1.86-.91-2.43-4.04-6.46-9.11-13.3-13.76-19.68l-24.97-34.27-26.3-36.34c5.08-9.73,9.18-19.22,12.95-29.29,8.73,2.68,17.01.29,22.37-6.66,4.81,2.24,9.11,5.62,11.01,10.94-10.21,2.84-20.28,5.44-27.36,13.5-1.85,2.11-2.5,5.62-.63,7.93,1.06,1.31,4.41,1.68,5.89.82,8.22-4.81,12.12-9.19,20.6-11.58,6.6-1.86,13.27.79,16.35,6.78,1.86,3.64,3.65,7.13,4.07,11.13-8.76-2.46-40.84-3.9-37.89,9.66,1.07,4.95,7.15,6,11.79,5.95,7.91-.09,15.49-.27,23.25.59,11.51,1.27,12.48,12.74,12.84,21.44-1.52-.21-2.33-.3-.7.09.86,1.79.95,3.66.68,5.06l-3.66-2.56c-5.37-3.76-19.16-10.71-23.33-4.58-2.88,4.24.67,9.32,4.78,11.32l16.84,8.18c3.36,1.63,5.67,5.51,4.92,9.19l-4.42-2.09c-.61,2.95,1.82,3.43,3.41,4.7l-4.96,16.53c-.16.52,1.21,1.52,1.55,1.27s1.48-.93,1.67-1.49l4.43-13.27,39.9,36.71,38.57,35.47c.32.29,1.53.44,1.88.22.44-.27.31-1.71-.1-2.1l-30.61-28.48-48.41-44.49c6.21-20.45-29.93-19-26.43-29.48,2.99-1.73,6.53-.4,9.56.6,9.44,3.12,9.25,6.56,17.56,10.26l1.24-6.87,13.4,10.35,61.9,45.74c.32.24,1.37.2,1.72.04.43-.21.55-1.63-.03-2.05l-25.82-19.19-48.59-35.9c1.71-.57,3.13-1.74,3.93-3.19l5.53-10,4.63,19.42c15.88,5.53,31.38,10.18,47.72,12.96,3.24.55,6.59-.32,9.5,1.64.66.44,1.98.77,2.95.77.83,0,1.01-2.38.46-3.01-4.76-5.46-.27-7.14-4.45-12.23-.86-1.04-1.88-1.92-3.22-1.98.06.4.67,1.33,1.07,1.81.49,1.37,1.07,3.48,1.24,4.97l.44,4.03c-1.55-.63-3.21-1.81-4.42-3.42-1.12-1.5-7.08-7.74-8.68-7.27l-4.09-4.79c-1.38.05-1.6-1.17-2.49-1.96l-28.42-25.46-29.98-26.71-11.64-10.34,19.04-3.44,9.81-1.97,11.27-2.83c1.69-.42,3.19-1.63,4.73.28,5.74,7.11,10.98,14.27,15.77,22.33l-13.93,9.32c-.77.52-1.51,1.33-1.58,1.97s1.14,2.26,1.8,2.32l23.01,1.87,4.19,7.47c.39.69,1.18,2.01,1.53,2.76l1.98,4.26c.42.9.52,2.57,1.42,3.29,1.78,1.42,1.25,4.05,2.08,5.62l2.9,5.45.55,1.04c.13.25.82-.14.87-.42.15-.82-.92-2.81-1.79-6.67-1.21-5.34-4.02-10.1-6.32-15.05l-4.95-10.67-4.36-.38-15.62-2.16,12.78-9.05c-5.29-9.5-10.95-17.43-17.58-25.62-.27-1.64-.26-4.04-.11-5.89l10.94-2.42c.93-.21,1.25,1.88,1.47.91.67-2.94,2.98-2.32,6.5-3.53M277.2,91.48c-3.07-1.27-5.88-1.66-9.41-2.1l.11-79.86c14.69,24.93,25.35,50.74,31.25,78.87.87,4.04,1.75,7.99,2.28,12.05l1.14,8.66c-5.53-2.03-11.19-1.25-16.22,2.1-.33-8-.34-16.07-9.14-19.72ZM245.69,110.95c-4.99-3.53-10.63-3.43-16.38-1.59.72-9.21,2.51-17.18,4.5-25.79,5.6-24.27,14.92-47.06,26.88-68.83,1.02-1.86,1.65-3.33,3.26-4.95l.15,43.61.13,36.25c-7.03.37-15.53,3.92-17.67,10.89-1.03,3.36-.75,6.99-.86,10.41ZM315.64,63.82c-.19,8.3,3.8,36.89,15.28,35.27,8.15-1.14,7.45-10.95,5.84-17.26l-4.19-16.39c-.84-3.29-1.44-7.25-.8-10.54.72-3.7,4.99-5.86,7.93-6.61,2.28-2.9,11.23-5.15,15.21-5.85-1.71,7.5-5.68,17.33-3.33,24.45.64,1.94,2.68,3.68,4.27,3.84,10.45,1.1,10.86-19.71,13.91-26.61.8-1.24,2.31-3.26,3.59-3.44l23.01,2.59-47.82,55.84-25.41,30.03-9.6-3.48c-1.3-5.03-3.91-9.98-7.08-14.03-.33-.43-.38-2.06-.28-2.59,4.17,1.25,9.93,4.08,12.46-.57,3.03-5.57-10.41-11.29-15.39-21.72-1.31-2.74-2.58-7.11-2.2-10.09.62-4.8,5.72-8.12,9-10.47,3.86,3.35,1.42-2.29,5.61-2.37ZM216.29,63.76c5.44,2.33,9.72,5.45,12.93,9.87,3.92,5.38-.29,15-4.14,18.99l-10.48,10.9c-.9.94-1.34,3.27-1.18,4.43.72,4.98,8.26,2.83,12.4,1.09-.6,5.51-5.25,8.4-7.15,16.23l-10.26,4.28-41.32-49.39-31.44-36.98c3.69-.7,6.71-.86,10.07-1.21l12.56-1.32c5.25-.55,5.97,16.28,9.72,24.75,1.36,3.08,4.75,5.79,8.13,4.83,8.79-2.5,2.7-21.44.6-27.63,6.68,1.03,12.84,3.34,18.4,6.64,4.18,2.48,5.72,6.17,5.14,11.13l-5.39,22.11c-1.28,5.27-2.55,14.22,3.8,16.25,2.77.89,5.71.5,7.8-1.8,7-7.69,9.45-22.68,9.81-33.19ZM366.04,131.19c7.79,2.36,15.43,2.37,23.98,2.32-2.4,5.42-6.77,13.61-12.88,14.29-10.83,1.2-18.92-6.64-26.51-12.59-2.23-1.75-4.62-1.94-7.05-.11l-.8,5.78-15.76-10.07,29.04-34.37,37.06-43.7c2.3-2.71,4.53-5.03,6.78-7.34.61,9.52,2.89,18.17,5.76,27.11,2.74,8.53-4.52,13.18-11.39,15.13l-15.63,4.41c-2.64.74-4.74,3.61-4.79,5.77-.06,2.81,1.5,4.95,3.96,6.26,8.2,3.25,18.42-1.96,26.6-5.57-.17,7.4-2.2,14.19-6.12,20.03-2.42,3.61-5.79,4.85-10.24,4.35-6.69-.75-13.25-2.12-19.89-3.57-4.28-.94-10.82-2.55-12.83,2.03-2.08,4.76,6.67,8.65,10.72,9.88ZM157.69,120.45c-10.07,2.04-20.24,5.42-25.51-4.29-2.87-5.29-4.31-11.26-4.88-17.32,7.88,3.43,22,9.86,28.72,3.33,1.45-1.41,2.11-4.02,1.64-5.84-1.74-6.8-21.43-6.25-28-11.98-4.13-2.86-5.23-7.2-3.7-11.86,2.93-8.95,4.95-17.58,6.15-27.39l33.47,39.44,39,46.74-15.56,9.84c.1-2.2.43-5-1.3-6.4-4.99-4.05-11.2,6.02-21.64,11.27-4.81,2.42-11.2,3.46-15.76.26-4.15-2.91-6.68-7.82-8.39-12.47,10.81-.49,27.76.15,34.31-9.16.87-1.24.38-3.59-.52-4.57-3.2-3.48-12.31-.76-18.04.4ZM284.66,131.88c-.56-1.13-1.73-1.6-2.41-1.3l-5.95,2.64c-.26.91-1.7,2.08-2.68,1.57-1.21-.63-2.37-1.59-3.29-2.53l1.73-8.75c.07-.34-.37-1.62-.44-1.95s-1.23.79-1.34,1.12l-2.82,8.22c-.14.42-1.41,1.15-1.64.85-.17-.22-.52-.75-.61-1.09l-2.06-7.61c-.15-.55-1.73-1.41-1.92-.95-1.05,2.55,1.52,6.33.27,9.92-5.64-6.68-9.74-13.97-12.27-21.92-2.28-7.16,1.17-14.18,8.37-16.37,5.45-1.66,11.7-1.94,17.28-.2,6.52,2.02,9.4,8.87,8.07,15.53-1.33,6.69-4.77,12.58-8.15,18.51-.27.48-.59,1.26-.28,1.43l1.05.58c.24.13.69-.85.84-1.12,2.58-4.66,5.32-8.94,8.95-12.75,4.42-4.64,11.12-6.5,16.78-3.16,6.01,3.55,10.71,15.83,8.56,22.96-2.85,9.46-18.77,11.81-24.89,6.97l.99-3.05c-7.62-2.38-8.31,1.5-13.29-1.13.95-1.22,1.91-2.33,2.82-2.73l8.32-3.69ZM385.72,126.39c7.21,1.16,13.69-1.75,16.97-7.94l3.23-6.12,6.78-2.89c5.55-2.37,10.92-4.53,16.64-6.37-1.13,1.18-10.87,7.81-7.4,10.25l6.88-7.25c1.15-1.21,2.19-2.47,3-3.88,8.35-3.1,16.71-5.45,25.07-7.43-2.25,2.59-4.26,4.47-6.44,6.61l-6.37,6.27-34.52,32.45-16.44,16.05c-1.69-3.46-4.56-6.1-7.95-7.85,5.1-5.53,8.53-11.5,9.59-18.61-4.79-1.14-11.82.51-19.13-.42,2.39-3.43,6.08-3.49,10.1-2.85ZM156.07,129.2c-6.53.42-11.4.44-17.36.35-.56,0-1.56,1.04-1.46,1.6,1.32,6.96,4.72,12.39,9.26,17.62-3.75,2.15-6.01,5.03-7.47,8.5-4.65-5.33-9.16-9.92-14.09-14.33l-10.01-9.6-41.13-38.69c8.62,1.71,16.32,4.26,24.37,6.86l4.75,4.38.27-2.75c8.14,2.9,15.83,6.2,23.44,9.97,9.83,23.84,24.26,6.16,29.43,16.09ZM217.17,106.66c3.06-4.14,6.32-7.03,9.8-10.01.7,6.23-5.34,12.04-9.8,10.01ZM315.03,106.9c-3.65.71-6.87-1.02-8.66-3.83-1.02-1.6-1.12-4.25-1.03-6.19l5.8,4.99c1.51,1.3,2.79,2.95,3.89,5.03ZM104.13,166.49c-14.68-22.22-25.35-42.54-33.1-68.43l5.16,4.31,34.18,32.19,15.79,15.08c-10.5-1.7-19.69,6.25-22.03,16.86ZM405.78,149.53l10.63-10.63,33.92-31.83c3.1-2.91,6.27-4.98,9.83-7.95-3.23,11.37-7.69,22.11-12.68,33.13-3.76,8.3-8.33,15.73-13.17,23.39-2.07,3.28-4.07,6.38-6.6,9.24-2.68-10.07-11.35-16.27-21.94-15.35ZM246.7,139.8l-.68,4.24c-6.93,1.82-14.34,1.24-20.41-2.71-8.75-5.7-4.36-21.4,3.08-27.8,5.72-4.92,13.53-2.74,18.32,2.48,4.72,5.14,8.14,10.66,11.47,17.23-4.11.68-8.72-3.71-10.52-1.44,4.55,3.55,8,3.2,11.96,6.11-2.43,2.64-8.57.61-13.22,1.89ZM369.4,126.96c-4.24.82-8.57-1.03-10.22-4.69,5.14-.41,9.85.74,14.23,2.31-1.26.87-2.95,2.17-4.02,2.38ZM158.41,124.63c5.19-1.57,9.38-2.82,14.57-2.45-1.91,3.62-6.14,5.12-10.18,5.16-1.3.01-3.47-1.9-4.39-2.71ZM152.12,215.19c1.76-26.42,13.75-50.38,33.95-66.92,9.6-7.86,19.9-14.04,31.62-18.03-.01,5.93,2.21,10.33,7.31,14.11l-4.67,2c-.58.25-1.38,1.23-2.11,2.14,6.75,1.88,9.29-3.13,18.43-.04-4.05,3.66-7.08,7.06-9.23,12.11l-7.72,1.88.46,3.17,6.22-1.02c.75,12.25,14.64,20.37,25.78,18.19,6.28-1.23,10.4-6.75,12.35-12.44.32-.95,1.31-1.89,2.01-1.93,1.63,4.27,3.51,7.81,6.8,10.8,7.16,6.5,17.5,4.09,24.97-.64,4.9-3.1,7.61-8.05,8.01-13.66l12.36,2.1c.73-5.21-9.58-4.57-12.92-5.8-4.07-7.31-3.36-6.71-9.9-12.79,7.85-4.15,12.28,3.27,17.23-1.77l-6.09-2.27c5.31-3.77,7.63-8.65,7.33-14.51,26.59,10.12,48.11,28.55,58.7,54.86,3.22,8,5.69,15.88,6.37,24.52l1.06,13.34,1.21-3.06c-.66,1.19-.84,2.52-1.61,3.24l-.55,3.04-1.94-1.31c-.69,1.62-1.64,3.62-1.64,5.38-.03,11.93-.37,23.41-2.07,35.11-.57,3.96-2.1,7.53-3.88,10.95-3.36,6.42-8.35,11.09-14.89,14.14-6.28,2.93-9.65,9.41-7.93,16.16.58,2.29,1.17,4.49,1.88,6.77,3.24,10.45,1.42,21.3-5.37,30.14-9.37,12.2-21.33,22.07-34.94,29.51-23.24,12.71-48.78,14.68-73.68,5.51-18.26-6.72-33.52-18.73-45.66-33.72-6.8-8.41-9.4-18.95-6.53-29.5l2.3-8.47c1.73-6.36-1.29-12.89-7.29-16.07-8.53-4.52-15.98-11.47-18.42-21.26-1.79-7.16-2.36-14.45-2.95-21.84-.57-7.13-.21-14.1-.27-21.32,0-.67.62-2.42.08-2.73l-3-1.73-1.04,7.89c-.96-4.64-.5-8.82-.14-14.22ZM262.84,139.68c0-2.02,1.64-3.66,3.66-3.66s3.66,1.64,3.66,3.66-1.64,3.66-3.66,3.66-3.66-1.64-3.66-3.66ZM347.34,137.39l7.24,5.69c.48.38.73,1.56.59,2.07-.91,3.2-9.82-4.94-7.83-7.76ZM176.68,143.53l8.03-6.3c1.81,3-4.29,8.07-6.45,8.84-.69.35-2.25-2.02-1.57-2.55ZM265.42,146.34c1.68,9.21-2.48,29.71-12.17,33.29-8.04,2.98-23.83-3.02-24.09-15.15-.05-2.54,1.64-5.71,3.3-7.86,10.14-13.17,27.43-16.43,26.95-14.69-.06.23-.43,1.16-.64,1.31l-7.74,5.51c-.31.22-.61,1.49-.33,1.65s.99.64,1.18.39l.71-.92c.22-.28,1.3-.42,1.65-.68l6.66-4.9c.44,1.57.36,2.49-.18,3.7l-2.72,6.14c-.19.42.64,2.15,1.04,1.94,3.52-1.83,2.76-7.98,6.38-9.74ZM273.31,152.78c.18-2.78-1.74-3.64-1.93-7.52,4.24.62,7.23,6.38,8.83,5.28.38-.26.61-1.7.2-2.04l-4.66-3.91c-.88-.74-1.56-1.93-1.25-2.93,5.16.65,9.36,2.67,13.67,4.93,5.4,2.83,10.02,6.57,13.1,11.91,2.35,4.07,2.88,9.38.09,13.34-3.96,5.61-10.69,8.41-17.48,8.52-13.71.23-17.86-19.66-15.63-30.01,1.95-.74,4.93,4.61,5.07,2.43ZM165.62,150.41l5.57-3.07c.56-.31,1.77-.08,2.21.32.37.33.45,2.01,0,2.31-1.73,1.09-5.33,2.72-7.77.44ZM384.17,177.9l1.99,8.81-10.2-7.12-2.26-1.65-10.13-16.7c3.17-7.49,10.87-11.76,18.72-10.27,10.33,1.96,10.01,12.87,8.55,20.79l-2.05,11.12c-1.05-.03-3-9.42-4.27-6.9-.17.35-.42,1.53-.34,1.92ZM146.86,177.64l-2.68,6.14c-2.12-5.38-3.17-17.69-2.91-22.47.33-6.05,4.39-9.93,10.3-10.28,7.62-.46,14.73,3.21,17.39,10.52-9.27,13.21-7.25,16.52-22.15,25.27-.91-1.58,4.67-11.68,1.57-10.42-.34.14-1.32.78-1.53,1.25ZM408.58,189.79c-1.99-3.07-10.58.62-11.46-1.41.94-.24,10.39-7.26,7.14-7-3.55.28-4.54,2.82-8.99,4.05.16-2.7,5-7.1,3.45-9.41-1.3-1.94-4.66,5.85-6.51,6.07,1-11.47,3.44-30.04,17.78-29.21,8.46.49,15.45,8.23,14.9,16.9-.49,7.76-12.53,10.97-17.85,15.65l12.64-.56c4.08-.18,7.89.95,10.56,3.77,5.69,6,4.5,18.99-4.67,23.51-4.91,2.42-10.76,1.75-15.24-1.57-5.22-3.88-9.73-7.97-14.6-12.87,1.44-1.01,11.71,1.99,10.35-.03-.19-.29-.85-1.11-1.21-1.24l-6.07-2.16c-.32-.11-1.24-1.13-.98-1.31,2.61-1.79,6.59-.83,10.75-3.17ZM126.15,198.47l11.22-1.68-13.58,12.4c-6.39,5.83-16.34,6.54-22.16-.57-4.29-5.25-4.44-13.64-.3-19,2.72-3.51,7.47-4.42,11.61-4.41h11.94s-10.63-6.02-10.63-6.02c-2.93-1.66-6.3-4.63-6.68-8.32-.85-8.31,4.83-16.16,12.74-17.77,5.78-1.18,10.84,1.09,13.76,6.01,4.06,6.87,6.21,14.68,5.48,23l-5.93-6.67c-1.96,2.34,2.63,6.78,3.16,9.8-3.63.68-7.84-5.24-11.16-3.41l7.14,6.33c-4.38,1.77-6.28-.15-8.95,1.03-.27.12-.29.93-.08,1.14s1.04.68,1.42.74l9.87,1.6c-2.41,3.38-9.42,2.74-8.86,5.8ZM386.24,192.58c0-1.76,1.43-3.19,3.19-3.19s3.19,1.43,3.19,3.19-1.43,3.19-3.19,3.19-3.19-1.43-3.19-3.19ZM139.46,192.55c0-1.75,1.42-3.17,3.18-3.17s3.18,1.42,3.18,3.17-1.42,3.17-3.18,3.17-3.18-1.42-3.18-3.17ZM39.08,208.75c-.83-.58-1.7-1.08-1.71-1.5-.03-2.32,2.92-1.52,3.44-4.27.16-.86-.65-2.36-1.27-3.53l1.33-6.66,11.33-1.81-8.04,13.11c-.11,1.24-1.04,2.12-.09,3.16l-2.36,15.7-5.42-.11,2.8-14.09ZM32.74,194.45c.89-.72,3.46-.82,4.69-.84-3.26,9.7-4.94,18.73-5.7,28.75l-6.7.06c.88-4.61,5.44-26.13,7.72-27.98ZM387.26,220.58c-.69-.35-1.6-.5-1.91-.24l-1.42,1.16-.58-4.89-.68-5.73c-.39-3.23.63-6.87,3.61-8.76.68,4.93-1.76,7.99-.09,10.47.21.31,1.52-.97,1.6-1.4l2.27-11.58c1.4.22,4.9,11.81,6.49,10.26,1.74-1.7-1.79-4.91-1.04-7.78,5.44,4.03,10.22,8.04,14.23,12.97s3.57,11.57-.41,15.84c-2.34,2.51-5.44,3.92-8.6,4.44-2.81-6.45-7.07-11.51-13.45-14.77ZM148.36,213.82c-2.18-4.98-2.8-9.41-1.97-13.73,4.15,6.15,3.39,7.21,1.97,13.73ZM148.43,218.51c-8.02,3.43-13.7,9.11-16.76,17.06-2.92-.83-5.87-2.09-8.16-4.11-7.1-6.24-2.88-15.23,2.97-20.79l11.13-10.57-1.96,7.85-.38,1.55c-.08.33,1.11.54,1.37.32.17-.15.71-.72.87-1.02l4.54-8.78,2.1,9.64c.65,2.97,2.81,5.72,4.27,8.85ZM45.99,223.02l2.68-11.96,3.75,2.69,5.79,9.54-12.22-.27ZM63.61,225.8l-1.85-2.91c-2.76,1.31-4.38-6.62-6.88-7.28h0l15.63,10.62c-.49,2.12-1.5,4.06-3.47,6.34-1.56-2.49-2.39-4.29-3.42-6.78ZM149.42,239.88c.33-.37,1.54-.78,1.92-.46.3.25.91,1.23.96,1.95,1.13,17.38,3.66,36.77,8.27,54.18-5.65,2.95-12.17,1.68-16.79-2.5-14.15-12.81-15.12-38.22-9.2-55.39,2.46-7.15,7.19-12.86,13.75-15.89-.15,4.63.23,8.75,1.2,13.01-11.09,8.25-11.25,27.55-6.51,38.95,1.17,2.93,2.24,5.53,3.85,8.2,1.34.39,2.67.72,3.08.08s.09-2.03-.32-2.66c-6.96-10.82-9.4-29.08-.2-39.47ZM378.98,247.35c.18-3.23.32-6.06,1.94-8.69,1.51.29,2.56,1.34,4.14,2.75.36-.28,1.67-2.97,1.02-3.7-.85-.94-2.26-1.98-3.5-2.91.15-3.85.54-7.69,1.15-11.97,7.39,1.09,12.31,9.8,14.4,16.46,5.39,17.18,3.93,38.38-8.34,52.33-4.68,5.32-12.09,7.12-18.41,4.46,3.51-14.28,6.42-27.83,7.22-42.08l.37-6.65ZM467.22,235.72l4.44-8.17,27.89-.8c-24.96,10.83-50.69,18.71-77.01,25.39-2.47.63-4.56,2.03-7.08.59,10.52-5.89,19.82-12.41,29.13-19.54,3.45-2.64,7.33-4.19,11.73-4.51,2.82.63,7.62,13.03,10.88,7.04ZM33.82,227.19l8.19-.72-.79,4.06-7.4-3.34ZM53.36,230.33c0-.07.28-3.15.29-3.22,1.06-.02,2.17-.01,3.34.03,1.17.04,2.32.11,3.2.21l3.74,7.64c.38.78,1.3,1.88,1.98,2.12s2.41-.51,2.93-1.21l5.3-7.12c10.12,1.22,15.69,6.45,23.8,12.55,5.68,4.27,11.1,7.89,16.89,11.46.09.49-1.27,1.13-2.05.92-20.32-5.28-39.91-11.59-59.83-18.73M50.23,233.94c-2.93-.05-4.63-1.6-5.79-2.78-.64-.65.04-3.34.48-4.2l6.12-.05M410.76,249.86c-5.83-1.1-8.94-6.05-8.44-11.33,5.27-2.24,9.73-5.15,12.35-10.27,6.83,3.66,13.63,5.91,21.39,6.4-7.95,6.7-16.02,11.61-25.29,15.2ZM125.58,247.83c-2.72,2.55-6.07,2.48-9.2.94-7.47-3.68-13.97-8.53-20.7-13.69,7.86-.81,14.65-2.93,21.5-6.46,2.06,3.13,4.72,5.55,8.02,7.42l4.63,2.79c.62,3.72-.88,7.15-4.25,9.01ZM109.08,257.15l-16.73,11.76c-21.79-6.98-43.85-20.54-60.41-36.65,3.36.71,6.08,1.69,8.87,2.71l.17,4.16,1.06-3.64,43.45,14.33,15.05,4.46c2.94.87,6.34.99,8.55,2.87ZM439.5,268.59c-6.35-4.37-11.67-7.52-17.83-12.25,18.27-4.65,35.25-10.04,52.83-15.77l24.64-8.03c-9.58,10.47-21.19,17.59-32.83,24.52-3.55-.3-6.4-.4-9.47.02l7.82.65c-6.7,3.94-13.03,6.69-19.99,9.32-1.34.51-3.92,1.86-5.18,1.52ZM72.78,291.87c1.74-2.02,3.11-3.33,5.01-4.93,9.59-9.68,20-17.84,31.42-25.35,5.85-3.94,11.7-7.13,18.34-10.45-.22,8.88.22,17.45,2.25,25.83l-40.46,11.05-16.57,3.84ZM402.12,276.92c2.42-8.52,2.68-16.77,2.5-25.62,16.01,8.13,30.16,17.94,43.26,29.4,3.84,3.93,7.67,7.13,11.21,11.65l-56.97-15.43ZM451.3,268.52c1.63-.77,3.49-.84,5.65-1.06l-1.81-.55,8.08-3.98,5.14-2.4,16.81,10.38c2.15,1.33,4.05,2.34,5.43,5.17-3.53.37-6.3-.11-9.52-.52l-35.13-4.51,5.35-2.53ZM38.5,276.73c7.85-6.31,16.02-11.06,24.68-16.22,3.37,1.28,6.1,2.83,9.16,4.28l13.4,6.35-47.23,5.59ZM457,284.54l-6.46-6.28,4.79-.45c-2.9-.93-5.79-.1-7.59-2.58l32.82,4.26,6.46.5c.5.04,1.38.65,1.54,1.09,1.15,3.08-23.19,8.22-26.23,8.65l-5.34-5.19ZM69.17,289.95c-10.53-2.37-20.11-4.96-29.63-9.27l44.96-5.59c-1.89,2.26-3.78,3.96-5.92,5.73l-9.42,9.12ZM180.86,309.6c-2.29,6.24-2.94,12.23-2.77,18.36-9.21-16.31-13.9-30.1-17.44-48.29,3.44,5.46,7.91,9.28,13.52,12.5l4.58,2.63c3.78,4.25,4.11,9.39,2.12,14.81ZM412.79,304.86c-2.36-2.61-4.12-5.2-6.45-7.12-3.44-2.82-7.04-5.12-9.59-8.64l4.25-8.72,51.77,14.48c1.71.48,3.03,1.01,4.37,1.89-6,2.53-11.38,3.13-17.05,4.49-8.98,2.16-17.86,3.46-27.3,3.63ZM350.16,303.05c.4-5,2.67-8.37,6.83-10.27,6.01-2.75,10.36-6.88,14.38-12.82-3.05,17.08-9.13,33.03-17.34,48.01.77-11.3-2.02-14.16-3.87-24.91ZM95.78,301.93c-7.43-.84-14.76-2.47-21.58-6.06l56.81-15.49,3.85,8.44c-7.02,7.67-10.39,6.82-16.68,14.5-2.61,3.19-19.19-1.03-22.41-1.39ZM107.23,366.86c.22-.16.41-1.96.19-1.99l-.99-.13-7.84,6c.11-4.47.76-9.57,2.3-14.27,4.77-14.52,26.2-5.25,39.93-9.31,4.12-1.22,7.01-5.59,4.86-9.56-4.37-8.03-29.84-7.45-37.8-5.42-.1-2.02.62-4.39,2.72-5.1l-.82-.82c-.7-.69,3.04-6.95,3.89-8.05,2.46-3.17,7.4-4.95,11.36-4.63,14.17,1.16,24.63,17.93,30.53,11.78,1.32-1.38,1.67-3.91.73-5.76-4.98-9.7-19.36-14.15-29.66-15.59,1.87-5.62,6.09-9.5,11.09-11.61,6.19,7.42,14.91,10,23.94,7.3,3.67,10.29,7.79,19.81,12.69,29.15l-20.05,27.14-6.98,9.76-30.69,41.97-10.01,14.36c-1.13-8.21-4.5-13.21-5.5-20.62l6.27-5.75c.32-.29.52-1.52.35-1.88s-1.32-.35-1.69-.06l-6.22,4.94c-3.23-6.41,4.55-11.46,9.37-13.79l12.36-5.99c3.58-1.73,6.52-5.81,5.06-9.68-3.35-8.91-22.33,2.02-27.47,6.16-.82-.76-.45-2.19.57-2.96l7.51-5.61ZM114.44,312.15c2.11-2.07,4.35-4.77,6.77-5.43,2.25-.61,5.59.74,8.09,2.09l-14.86,3.34ZM436.15,365.28l-1.29-6.65c-.61-3.16-1.94-6.57-4.51-8.8-2.61-2.26-6.37-4.33-9.89-4.62l-9.75-.8c-.83-2.83-1.38-5.45-2.73-7.78-1.03-1.78-4.14.19-4.79,1.56l-3.03,6.38c-3.84.18-11.5.53-11.57-4.39-.01-1.06,1.37-2.58,2.62-3.07,7.17-2.8,14.74-2.79,22.3-2.16,4.65.39,8.58.78,13.19,2.76,2.88-4.01-3.98-17.51-7-21.33-4-5.06-10.62-6.27-17.06-6.53,2.64-3.81,7.35-2.99,10.83-.76,6.29,4.04,11.46,9.05,17.17,14.13l53.95,48.03c1.85,1.65,3.68,3.39,5.49,4.74,1.98,1.26,3.69,1.8,4.99,3.82,2.65,4.09,7.24,6.33,9.9,9.81-2.33-.06-3.57-.13-5.1-.45-10.82-2.29-21.21-4.85-31.67-8.32l-11.17-3.71c-.97-2.83-1.58-5.82-2.18-8.64l-2.83-13.29c-.15-.7-1.54-1.95-2.22-1.8-.57.13-1.68.92-2,1.55l-6.52,12.77c-.45.88-2.86.71-3.63.3-.66-.36-1.29-1.6-1.51-2.76ZM140.16,315.5c-2.6-1.73-5.53-3.13-8.05-4.51-.53-.29.79-1.88,1.38-1.8,7.49,1.07,14.76,5.26,19.13,10.9.37.48.5,1.78.48,2.24s-1.89.5-2.36.19l-10.57-7.03ZM380.86,322.76c-.56.33-2.57-.25-2.42-.79,1.86-6.92,19.27-13.62,20.19-11.79l.65,1.28c-8.18,3.55-11.22,7.04-18.42,11.31ZM361.8,392.7l5.08-14.04c1.4-3.87,1.47-8.29-.42-11.86-2.1-3.95-6.88-4.97-10.34-2.14-6.37,5.21-12.37,23.92-13.49,32.49-4.66-2.75-9.39-6.14-11.94-11.26-1.41-2.84-1.38-7.38-.33-10.31,1.38-3.87,4.45-6.66,7.48-9.16,3.67-3.02,7.07-5.77,10.52-9.04,1.52-1.43,1.59-4.09.94-5.79-.71-1.86-3.05-2.46-5.54-2.7l11.86-16.56,45.42,62.74,18.13,24.96c.76,1.05,2.6,1.21,1.99,3.42l-20.93.08c-.87,0-2.86-.68-3.22-1.37-.66-1.28-1.98-4.14-2.13-5.57-.67-6.33-.94-17.31-5.45-21.68-1.56-1.51-3.97-2.12-5.72-1.5-5.69,2.02-4.77,14.11-3.62,18.67l2.08,8.28c-7.56-1.27-13.53-4.49-19.18-8.85-6.2-4.79-3.41-12.62-1.18-18.79ZM187.92,356.37c-1.07-.83-1.77-2-2.35-3.35,4.91-2.66,14.6,7.39,14.71,12.87l-12.36-9.52ZM345.98,353.58c-1.56,2.33-3.13,3.98-5.04,5.61l-11.11,9.5c-2.63-5.75,10.89-17.87,16.16-15.11ZM222.01,423.98c-4.05,12.91-8.98,22.78-15.38,34.88l-.15-32.48-.48-51.54c-.03-3.02-1.92-5.85-.24-8.81l13.22,8.93c-.07,9.79.58,19,2.36,28.58.93,4.99-3.75.38-8.81,2.92,2.87,6.22,6.18,7.98,8.18,13.18,1.36.8,1.96,2.18,1.31,4.35ZM317.87,408.88c.38-.53.79-1.46.62-1.93s-1.45-1.04-1.98-1.04h-6.54c.99-10.02,1.81-19.92,2.21-29.8.03-.75,1.46-1.84,2.05-2.23l10.93-7.18c1.49,3.01.41,6.1.37,9.35l-.57,46.19-.17,20.19-.26,15.88c-6.78-12.46-11.8-24.63-15.45-37.23l8.79-12.2ZM279.16,426.35c-1.23,3.12,1.17,5.03,2.44,6.86l6.11,8.82,5.56,7.92-11.42,24.56c-1.85,3.99-11.42,20.57-14.99,24.06l-.21-39.51-.5-3.49.09-67.86,13.27-1.54c10.05-1.16,19.05-4.83,28.57-8.9.21,6.83.04,13.53-1.4,19.83l-9.78-6.09c-1.02-.08-2.77.07-3.09.78s.52,2.26,1.24,2.77l11.13,7.94-1.34,8.17c-.62,3.76-1.53,7.5-2.82,10.69l-.9-2.5.4,4.71-2.47,7.52-15.36-4.71c-1.11-.34-4.09-1.09-4.51-.03ZM233.82,440.64l-3.93-13.04-3.84-16.22c-.61-2.57-.18-4.35,1.95-5.94,2.96-2.21,12.43-8.64,9.02-11.98-.68-.66-2.63-.81-3.67-.43l-9.32,3.4c-1.13-6.78-1.51-12.73-1.23-19.45l13.99,5.49c8.25,3.24,16.93,3.97,25.7,4.99l.08,19.53-.06,36.68-.24,54.1c-8.86-12.86-15.81-26.22-22.42-40.18l12.41-17.62c.1-1.07.14-2.51-.05-3.24-.16-.6-1.98-.66-2.65-.48l-15.73,4.39ZM202.29,433.22c.23,1.94-.37,4.01-1.11,5.03,1.27,1.05,1.35,3.37.68,4.66l-3.41.3,1.1.87c.17.13-.15.64-.36.68l-1.83.34,4.76,1.04-.32,10.8c-2.56-4.09-4.5-7.56-6.53-11.79,1.88-.89,1.48-.84-.28-.73-7.95-17.46-16.81-43.07-13.88-62.46,2.95,6.69,4.1,13.19,5.07,20.02,3.87,1.99,13.62-8.49,16.12-11.25v7.16c.02,2.08-.74,4.19-1.57,6.02,3.36-1.99.8,10.39,1.07,11.49.19,1.04.59,2.6.58,3.49l-.14,9.31-1.55,2.54c.78.21,1.35.2,1.39.54l.23,1.96ZM329.61,391.3c2.71,3.8,12.61,11.15,15.54,10.79.39-.05.82-1.07.88-1.48.93-6.33,1.98-12.2,4.75-17.96,1.54,9.94-.34,18.95-2.71,28.33-4.14,16.4-9.91,32.09-18.89,46.89l.02-55.44c0-3.79.03-7.14.42-11.13ZM308.11,410.92l4.25-.38-4.4,5.85.16-5.47Z"/>
        <path class="cls-9" d="M284.66,131.88l-8.32,3.69c-.92.41-1.87,1.52-2.82,2.73,4.98,2.63,5.68-1.25,13.29,1.13l-.99,3.05c6.12,4.84,22.04,2.48,24.89-6.97,2.15-7.13-2.55-19.42-8.56-22.96-5.66-3.34-12.36-1.48-16.78,3.16-3.63,3.81-6.37,8.09-8.95,12.75-.15.28-.6,1.25-.84,1.12l-1.05-.58c-.31-.17,0-.95.28-1.43,3.38-5.94,6.82-11.83,8.15-18.51,1.32-6.65-1.56-13.5-8.07-15.53-5.58-1.73-11.84-1.46-17.28.2-7.19,2.19-10.65,9.21-8.37,16.37,2.53,7.95,6.64,15.23,12.27,21.92,1.25-3.59-1.32-7.37-.27-9.92.19-.46,1.77.4,1.92.95l2.06,7.61c.09.34.43.87.61,1.09.23.3,1.5-.44,1.64-.85l2.82-8.22c.11-.32,1.28-1.44,1.34-1.12s.5,1.61.44,1.95l-1.73,8.75c.92.94,2.08,1.9,3.29,2.53.98.51,2.42-.66,2.68-1.57l5.95-2.64c.68-.3,1.85.17,2.41,1.3Z"/>
        <path class="cls-7" d="M126.15,198.47c-.56-3.07,6.45-2.43,8.86-5.8l-9.87-1.6c-.38-.06-1.21-.53-1.42-.74s-.19-1.02.08-1.14c2.67-1.18,4.57.74,8.95-1.03l-7.14-6.33c3.31-1.83,7.52,4.1,11.16,3.41-.54-3.02-5.12-7.46-3.16-9.8l5.93,6.67c.73-8.32-1.41-16.13-5.48-23-2.91-4.92-7.98-7.18-13.76-6.01-7.91,1.61-13.59,9.47-12.74,17.77.38,3.7,3.75,6.66,6.68,8.32l10.63,6.03h-11.94c-4.14-.01-8.89.89-11.61,4.4-4.14,5.36-3.99,13.76.3,19,5.82,7.11,15.77,6.4,22.16.57l13.58-12.4-11.22,1.68Z"/>
        <path class="cls-10" d="M408.58,189.79c-4.16,2.34-8.14,1.38-10.75,3.17-.26.18.66,1.2.98,1.31l6.07,2.16c.36.13,1.01.95,1.21,1.24,1.36,2.02-8.91-.98-10.35.03,4.87,4.9,9.38,8.99,14.6,12.87,4.48,3.32,10.33,3.99,15.24,1.57,9.16-4.51,10.35-17.51,4.67-23.51-2.67-2.82-6.48-3.95-10.56-3.77l-12.64.56c5.32-4.68,17.36-7.89,17.85-15.65.54-8.67-6.45-16.41-14.9-16.9-14.34-.83-16.78,17.74-17.78,29.21,1.85-.23,5.22-8.01,6.51-6.07,1.55,2.31-3.29,6.71-3.45,9.41,4.45-1.23,5.44-3.77,8.99-4.05,3.25-.26-6.2,6.76-7.14,7,.88,2.02,9.47-1.66,11.46,1.41Z"/>
        <path class="cls-2" d="M265.42,146.34c-3.62,1.76-2.86,7.91-6.38,9.74-.4.21-1.22-1.52-1.04-1.94l2.72-6.14c.54-1.21.62-2.13.18-3.7l-6.66,4.9c-.35.26-1.43.4-1.65.68l-.71.92c-.2.25-.9-.23-1.18-.39s.02-1.43.33-1.65l7.74-5.51c.21-.15.57-1.07.64-1.31.47-1.74-16.82,1.52-26.95,14.69-1.66,2.15-3.35,5.32-3.3,7.86.26,12.13,16.05,18.13,24.09,15.15,9.69-3.59,13.85-24.08,12.17-33.29Z"/>
        <path class="cls-8" d="M273.31,152.78c-.14,2.18-3.12-3.17-5.07-2.43-2.23,10.34,1.92,30.23,15.63,30.01,6.8-.11,13.52-2.92,17.48-8.52,2.8-3.96,2.26-9.27-.09-13.34-3.08-5.33-7.71-9.07-13.1-11.91-4.3-2.26-8.51-4.28-13.67-4.93-.31,1,.37,2.19,1.25,2.93l4.66,3.91c.41.34.19,1.78-.2,2.04-1.6,1.1-4.59-4.66-8.83-5.28.19,3.88,2.11,4.74,1.93,7.52Z"/>
        <path class="cls-12" d="M246.7,139.8c4.65-1.28,10.79.75,13.22-1.89-3.96-2.91-7.41-2.56-11.96-6.11,1.8-2.27,6.41,2.12,10.52,1.44-3.33-6.56-6.76-12.08-11.47-17.23-4.79-5.23-12.6-7.4-18.32-2.48-7.44,6.39-11.83,22.1-3.08,27.8,6.07,3.95,13.47,4.53,20.41,2.71l.68-4.24Z"/>
        <path class="cls-5" d="M146.86,177.64c.2-.47,1.19-1.11,1.53-1.25,3.09-1.26-2.48,8.84-1.57,10.42,14.9-8.75,12.88-12.06,22.15-25.27-2.66-7.31-9.77-10.98-17.39-10.52-5.91.35-9.97,4.24-10.3,10.28-.26,4.78.79,17.09,2.91,22.47l2.68-6.14Z"/>
        <path class="cls-11" d="M384.17,177.9c-.09-.39.16-1.58.34-1.92,1.27-2.52,3.22,6.87,4.27,6.9l2.05-11.12c1.46-7.93,1.78-18.83-8.55-20.79-7.84-1.49-15.55,2.78-18.72,10.27l10.13,16.7,2.26,1.65,10.2,7.12-1.99-8.81Z"/>
        <path class="cls-13" d="M387.26,220.58c6.38,3.27,10.64,8.32,13.45,14.77,3.17-.52,6.26-1.93,8.6-4.44,3.98-4.28,4.29-11.08.41-15.84s-8.79-8.93-14.23-12.97c-.75,2.87,2.78,6.08,1.04,7.78-1.59,1.54-5.09-10.05-6.49-10.26l-2.27,11.58c-.08.43-1.4,1.71-1.6,1.4-1.67-2.49.77-5.55.09-10.47-2.98,1.89-3.99,5.53-3.61,8.76l.68,5.73.58,4.89,1.42-1.16c.32-.26,1.23-.11,1.91.24Z"/>
        <path class="cls-4" d="M148.43,218.51c-1.46-3.13-3.62-5.88-4.27-8.85l-2.1-9.64-4.54,8.78c-.15.29-.7.87-.87,1.02-.25.22-1.45.01-1.37-.32l.38-1.55,1.96-7.85-11.13,10.57c-5.85,5.56-10.07,14.54-2.97,20.79,2.29,2.01,5.24,3.27,8.16,4.11,3.06-7.95,8.74-13.63,16.76-17.06Z"/>
        <path class="cls-3" d="M148.36,213.82c1.42-6.53,2.18-7.58-1.97-13.73-.83,4.32-.21,8.76,1.97,13.73Z"/>
        <path class="cls-6" d="M215.18,309.63c.51-1.75,1.13-2.54,1.88-4.03,3.71-7.4,2.13-16.91-2.43-24.1-4.24-6.7-11.73-11.19-20.19-12.33-3.9-.53-8.06-.88-11.5-2.72-9.48-5.07-15.34-24.08-15.64-33.13l-.48-14.52-1.02,3.66c-3.22-8.55,1.74-6.76.79-8.54-.45-.84-1.84-1.9-2.29-1.49l-.65,6.21c-1,9.52.11,18.85.52,28.43.27,6.33-.09,12.32,1.27,18.5,1.55,7.02,5.7,13.55,12.32,16.61,4.74,2.18,9.98,2.01,14.98,2.83,6.6,1.09,11.64,6.78,10.28,13.43-.92,4.5-3.9,8.33-7.09,11.42l-5.01,4.85c-5.25,5.08-6.69,12.65-2.2,18.93,7.54,10.54,16.81,19.48,27.41,27.03,9.04,6.44,18.53,10.81,29.08,14.09,12.18,3.78,22.68,3.07,35.19,1.74,2.31-.24,4.11-.75,6.22-1.42,13.36-4.25,25.38-10.68,36.16-19.65,7.64-6.35,19.02-16.94,22.8-26.12,1.7-4.11.49-9.23-2.57-12.41l-7.63-7.93c-2.46-2.56-4.76-5.84-5.86-9.21-1.51-4.65,0-9.58,3.88-12.16,7.47-4.98,19.37-1.6,24.76-7.94l5.35-6.31c2.73-3.21,3.81-8.42,3.96-12.61l.74-20.52.48-8.01.05-24.57c-2.81.8-3.91,3.46-3.84,6.24.44,17.59,1.51,24.79-6.16,41.69-3.65,8.04-9,9.09-8.07,11.99l3.59-1.01c5.44-4.63,8.32-10.59,10.65-17.54-.07,9.77-.72,24.77-10.9,29.65-3.89,1.86-8.32,2.45-12.66,2.85-6.77.63-13.21,4.05-15.19,10.91-1.61,5.58.35,11.61,4.31,15.8l9.4,9.96c3.32,3.52,3.81,8.63,1.33,12.71-2.21,3.65-4.86,6.61-7.94,10.14l1.03-5.9c1.19-6.8-1.13-13.44-6.48-18.03-3.21-2.75-6.11-5.46-8.55-9.21-2.74-4.21-2.59-14.03-4.83-12.09-.4.35-1,1.63-1.01,2.24-.06,12.88,9.7,17.94,15.05,24.72,6.11,7.73.49,21.93-3.65,26.05-10.55,10.52-23.74,17.75-37.82,22.48-7.97-9.25-21.28-12.89-31.91-6.99l-2.66,1.48c-.21.29-.79.99-1.01,1.27s-1.33-.02-1.62.25l-4.21,3.85c-5.13-1.73-10.1-3.08-14.87-5.68-8.38-4.55-16.54-9.39-23.05-16.38-4.79-5.15-9.84-19.86-3.87-26.6,3.51-3.97,10.36-9.24,11.41-12.87ZM191.97,318.44c4.85-5.73,10.54-8.96,13.58-16.76,2.64-6.77.3-13.84-5.98-17.45-8.31-4.77-19.18-1.2-25.8-9.02-5.74-6.78-6.31-16.57-6.16-25.31,4.04,11.48,10.1,21.23,23.93,22.09,11.64.72,21.78,8.6,23.86,20.32,1.51,8.55-1.62,16.66-8.05,22.09-1.83,1.55-4.16,4.06-5.29,5.7-.13.4.44,2.13.07,1.92-.27-.15-1.9.25-2.2.67-2.89,3.97-2.84,12.36-1.07,17.67-5.97-5.68-13.45-14.17-6.89-21.93ZM251.2,372.68c-.51-.43-.66-1.04-.46-1.57,8.93-8.03,22.72-8.44,31.74.7-10.36,3.05-20.71,2.89-31.28.87Z"/>
        <path class="cls-6" d="M207.8,265.12c15.69,1.53,30.72-3.03,43.58-11.81-3.71-17.63-12.45-31.53-29.52-38.43-12.78-5.17-27.06-5.81-40.07-1.19l-9.27,3.29c.69,9.11,2,17.73,5.76,26.06,5.4,11.97,15.92,20.76,29.52,22.08ZM234.79,254.66c4.13-1.44,7.69-3.27,11.35-5.92.67.32,1.3,2.96.47,3.45-10.58,6.27-22.13,9.77-34.34,9.8-24.02.04-35.35-21.37-35.99-42.98,23.22-10.6,57.68-4.24,66.89,22.24-1.62-1.55-2.9-3.12-4.28-4.89-7.91-10.18-19.95-16.44-33.06-16.15-9.37.21-17.72,3.32-25.75,7.77.64,3.44,1.86,5.98,3.45,8.82,11.27,20.1,29.75,25.35,51.25,17.86ZM204.4,243.86c3.68,6.01,11.53,7.22,17.19,3.4,5.74-3.87,7.1-10.92,4.46-17.45,2.4,1.33,4.18,2.81,6.31,4.98.53,8.03-4.02,16.54-12.25,19.1-5.12,1.59-11.25-.12-15.91-2.33-3.45-1.64-8.84-11.06-5.55-18.85,1.29-3.05,4.47-7.76,9.04-8.4,4.69-.65,11.42.51,14.6,3.68,4.84,4.82,3.96,12.66-.47,16.5s-10.12,3.94-14.11.25c-3.7-3.43-4.01-8.78-.35-12.25,1.75-1.65,4.57-2.57,6.55-.84-2.59.77-5.09,1.47-5.9,3.65-1.32,3.53,1.16,7.27,4.63,7.99,3.08.64,6.51-1.45,7.43-4.87.77-2.86-.24-5.64-2.03-7.41-2-1.98-4.67-2.63-7.69-2.27s-5.6,3.18-6.51,5.28c-1.43,3.29-1.3,6.79.56,9.83ZM191.51,241.47c-1.88-5.52.12-11.45,3.24-15.72,2.56-1.09,5.77-1.48,8.22-1.47-8.05,5.65-9.4,15.64-4.6,23.94-2.42-1.64-5.87-3.84-6.87-6.75ZM183.95,229.89c3.12-1.48,4.96-2.29,7.81-3.23-2.15,4.15-3.06,7.67-2.77,12.65l-5.04-9.42ZM234.16,251.03c-3.34,1-5.77,1.72-8.87,2.33,5.57-4.06,8.63-9.42,8.94-16.47l4.03,4.98c-.93,3.51-2.06,6.07-4.1,9.16Z"/>
        <path class="cls-6" d="M280.63,252.93c10.73,8.6,27.84,13.18,41.36,12.35,14.46-.88,26.85-9.55,32.3-22.97,3.24-7.99,5.1-16.18,5.32-25.09-15.47-7.54-33.07-8.79-48.97-2.47-17.37,6.9-25.19,20.49-30.01,38.18ZM352.31,228.08c-16.42-9.78-35.32-11.49-50.98.53-4.16,3.19-7.23,7.38-11.45,11.21,3.79-10.64,12.79-18.08,23.01-22.09,13.92-5.46,29.33-4.62,43.09,1.47-.68,21.97-12.2,42.83-36.64,42.71-11.92-.06-23.08-3.37-33.42-9.53-.78-.46-.46-2.78.24-3.64,7.93,5.13,16.42,8.28,25.8,9.05,19.19,1.57,35.08-11.61,40.35-29.7ZM334.4,247.67c4.6-8.48,2.74-17.76-4.77-23.49,2.97.22,5.51.72,8.29,1.47,2.83,4.94,4.38,9.88,3.67,15.55-2.07,2.53-4.3,4.76-7.18,6.46ZM312.32,237.84c.55,3.11,2.86,4.96,5.06,5.23,2.91.36,5.51-.41,6.52-3.35.58-1.68.29-4.08-.95-5.13-1.21-1.02-3.22-1.01-4.99-.68l-2.07-1.49c.83-.63,2.44-1.69,3.48-1.78,4.15-.33,7.1,2.37,8.19,5.81,1.03,3.26-.57,6.89-3.54,9.08-5.19,3.81-12.54,1.93-15.65-4.14-2.02-3.95-1.74-10.45,2.01-13.7,3.52-3.06,9.51-4,14.07-3.47,4.72.55,8.05,5.12,9.39,8.29,3.16,7.47-.75,17.36-7.98,20.02-4.09,1.51-8.93,2.61-13.14,1.29-8.62-2.69-13.47-11.02-12.21-19.64,1.84-1.6,3.71-3.05,5.76-4.43-1.75,5.63-1.74,10.48,1.64,14.76,2.84,3.6,7.92,5.72,12.79,4.64,3.99-.89,6.95-3.49,8.35-7.23,1.33-3.55.77-7.26-1.63-9.97-2.18-2.47-5.45-3.97-9.11-3.07-3.82.94-6.7,4.86-5.97,8.97ZM343.96,237.82c-.49-4.88-1.41-8.25-3.65-11.26,3.37,1.01,5.41,2,7.76,3.68l-4.11,7.58ZM294.68,241.38c.4-1.28,2.21-3.26,3.52-4.35.54,7.27,3.38,12.83,8.99,16.1-9.03-.89-11-3.46-12.51-11.75ZM291.49,247.01c-.28-.67,1.02-2.39,1.52-2.69l2.19,5.03c-1.28-.24-3.23-1.23-3.7-2.34Z"/>
        <path class="cls-6" d="M255.99,303.35l1.99.57c.83,2.05,2.34,3.2,4.75,2.53,1.77-.49,4,.38,5.59.59,4.15.54,6.82-3.43,9.85-5.24,3.98-2.37,12.61,2.45,14.43-.63,2.59-4.4,2.39-10.11-.31-14.41-1.25-1.99-4.47-4.04-6.64-4.16l-6.49-.37-.63-6.47c-.79-8.13.17-26.24,1.52-34.96,4.9-31.67,39.24-37.72,38.76-39.4l-.46.12-6.14,1.21c-10.47,2.06-19.32,8.72-26.56,16.21,1.74-8.78,7.02-15.86,13.82-21,.51-1.29,1.41-2.02,2.66-3.43-3.2-1.38-9.53,4.73-11.58,7.14-3.89,4.58-6.65,9.44-8.44,15.22-4.18,13.46-6.7,26.95-7.3,41.08-.22,5.1-.39,9.82.03,14.9l.58,6.95.17,14.28c.04,2.96-.45,5.38-2.34,7.45-1.82,1.99-4.15,2.71-7.24,2.78-5.03.12-9.29-3.45-9.39-8.68l.19-13.22c.32-8.49-.56-4.31-1.66-3.03-.31.37-1.31-2.05-1.56-2.15.11,1.42-.38,11.97-.5,13.53l-.48,6.25-3.24.56.77.7c.18.16.33.35.18.39l-1.29.39c-.32.1-.62.76-.64,1.1-.1,2.24,4.45-.98,7.59,3.2ZM284.91,298.29c-1.58.51-4.88,1.33-5.34-.97-1.09-5.39-.96-6.58.18-11.4,4.49-1.28,8.38.5,10.37,3.98.9.13,1.92.2,2.38.55.38.29-1.78-.66-1.89-.6-.93-.2.61,1.94.59,2.28l-.05,1.47c-.04,1.17-.02,3.49-.66,4.29-1.21,1.5-3.95-.11-5.59.42Z"/>
        <path class="cls-6" d="M215.08,201.61c31.4,7.64,38.53,24.63,38.55,56.98v18.23c.02,2.21-.25,4.46,3.17,4.99l.44-12.3c.68-18.79-1.14-30.72-5.94-48.77-2-7.51-6.13-16.01-11.45-20.84-.53-.48-2.27-.58-2.76-.52-.61.08,1.01,2.2,1.43,2.66,4.39,4.87,6.39,10.01,8.01,16.42-8.36-8.76-17.68-16.2-29.11-18.91l-2.34,2.05Z"/>
        <path class="cls-6" d="M251.12,201.08c0,8.2,6.65,14.85,14.86,14.85s14.86-6.65,14.86-14.85-6.65-14.85-14.86-14.85-14.86,6.65-14.86,14.85ZM254.6,201.03c0-6.33,5.13-11.46,11.46-11.46s11.46,5.13,11.46,11.46-5.13,11.46-11.46,11.46-11.46-5.13-11.46-11.46Z"/>
        <path class="cls-6" d="M313.48,291.81c1.41-.18,3.21-.79,3.77-1.57,3.01-10.36,11.41-17.05,22.14-17.91,2.84-.23,7.24-1.28,9.4-2.3.18-.09-.25-.69-.16-.87l.55-1.17c-17.88,1.38-30.51,3.76-35.69,23.82Z"/>
        <path class="cls-6" d="M384.81,281.91c2-2.05,2.91-4.47,3.86-6.94,3.91-10.19,5.23-22.96.53-32.34l-3.6.1c5.79,11.92,3.53,27.94-4.46,38.8.34,1.23,2.62,1.45,3.67.38Z"/>
        <path class="cls-6" d="M291.49,247.01c.47,1.11,2.42,2.1,3.7,2.34l-2.19-5.03c-.49.3-1.8,2.03-1.52,2.69Z"/>
        <path class="cls-6" d="M262.13,201.57c.17,1.18,1.86,2.65,2.81,2.89,1.2.31,2.89-.41,4.18-1.43,1.34-1.06.96-3.23,0-4.58-.91-1.3-2.54-2.1-4.21-1.46-1.43.55-3.14,2.14-2.79,4.58Z"/>
      </g>
      <path class="cls-6" d="M289.02,338.9c4.65-4.41,8.81-8.23,13.95-11.36.83-.51.71-1.78.35-2.19-.34-.38-1.08-.45-2.02-.12-15.69,5.52-22.1-15.85-35.34-3.21-11.83-12.18-17.58,5.48-32.18,3.91-2.03-.22-4.16-2.1-5.78.55,5.7,3.91,10.15,8.14,14.78,12.5,13.21,12.41,32.77,12.69,46.23-.07ZM253.7,321.53c6.57-3.53,10.25,3.24,12.18,3.41s6.31-7.69,13.96-2.55c3.68,2.47,7.48,3.95,11.47,6.32-17.3,3.23-33.96,2.84-51.11.08l13.5-7.25ZM246.19,338.09c-2.12-1.88-4.4-2.91-5.08-5.77,17.31,1.93,33.77,2.34,51.12-.57-11.64,14.89-31.39,19.35-46.04,6.34Z"/>
      <path class="cls-1" d="M303.96,162.38c-2.72-7.48-7.57-11.19-12.85-16.26,5.65-1.74,10.97-1.2,16.5.76,25.33,6.52,48.4,19.22,64.06,39.78-21.7-12.8-42.91-20.64-67.71-24.27Z"/>
      <path class="cls-1" d="M225.34,162.67c2.72-7.48,7.57-11.19,12.85-16.26-5.65-1.74-10.97-1.2-16.5.76-25.33,6.52-48.4,19.22-64.06,39.78,21.7-12.8,42.91-20.64,67.71-24.27Z"/>
      <path class="cls-1" d="M283.04,226.02c8.84-46.08,58.01-48.21,86.88-28.73,1.34,3.2.33,9.82-1.6,12.02-28.38-18.67-63-12.23-85.28,16.72Z"/>
      <path class="cls-1" d="M249.6,224.87c-8.84-46.08-58.01-48.21-86.88-28.73-1.34,3.2-.33,9.82,1.6,12.02,28.38-18.67,63-12.23,85.28,16.72Z"/>
    </g>
  </g>
</svg>